<svg width="960" height="540" viewBox="0 0 960 540" xmlns="http://www.w3.org/2000/svg" role="img" aria-labelledby="title desc">
  <title id="title">DevS69 HUD Console</title>
  <desc id="desc">A neon-styled command center card for DevS69 with health, security, and release widgets.</desc>
  <defs>
    <linearGradient id="bg" x1="0" y1="0" x2="1" y2="1">
      <stop offset="0%" stop-color="#0b1022"/>
      <stop offset="100%" stop-color="#1a1f3f"/>
    </linearGradient>
    <linearGradient id="accent" x1="0" y1="0" x2="1" y2="0">
      <stop offset="0%" stop-color="#7c3aed"/>
      <stop offset="100%" stop-color="#06b6d4"/>
    </linearGradient>
  </defs>
  <rect x="0" y="0" width="960" height="540" rx="28" fill="url(#bg)"/>
  <rect x="24" y="24" width="912" height="492" rx="22" fill="#0f1630" stroke="#2b3a67"/>
  <rect x="56" y="58" width="848" height="42" rx="10" fill="#162044"/>
  <circle cx="82" cy="79" r="7" fill="#34d399"/>
  <circle cx="106" cy="79" r="7" fill="#fbbf24"/>
  <circle cx="130" cy="79" r="7" fill="#f87171"/>
  <text x="160" y="85" fill="#c7d2fe" font-size="18" font-family="Inter,Segoe UI,Arial">DevS69 Command HUD • Live Signals</text>

  <rect x="56" y="124" width="270" height="160" rx="16" fill="#101a39" stroke="#2c3f72"/>
  <text x="78" y="156" fill="#e2e8f0" font-size="20" font-family="Inter,Segoe UI,Arial">Quality</text>
  <text x="78" y="190" fill="#34d399" font-size="38" font-family="Inter,Segoe UI,Arial" font-weight="700">98.7%</text>
  <rect x="78" y="214" width="220" height="12" rx="6" fill="#1e2b53"/>
  <rect x="78" y="214" width="202" height="12" rx="6" fill="url(#accent)"/>
  <text x="78" y="253" fill="#93c5fd" font-size="14" font-family="Inter,Segoe UI,Arial">Mutation + policy + docs coverage</text>

  <rect x="345" y="124" width="270" height="160" rx="16" fill="#101a39" stroke="#2c3f72"/>
  <text x="367" y="156" fill="#e2e8f0" font-size="20" font-family="Inter,Segoe UI,Arial">Security</text>
  <text x="367" y="190" fill="#22d3ee" font-size="38" font-family="Inter,Segoe UI,Arial" font-weight="700">A+</text>
  <text x="367" y="224" fill="#93c5fd" font-size="14" font-family="Inter,Segoe UI,Arial">0 critical • 0 high • hardened defaults</text>
  <text x="367" y="247" fill="#93c5fd" font-size="14" font-family="Inter,Segoe UI,Arial">code scanning + CI gates online</text>

  <rect x="634" y="124" width="270" height="160" rx="16" fill="#101a39" stroke="#2c3f72"/>
  <text x="656" y="156" fill="#e2e8f0" font-size="20" font-family="Inter,Segoe UI,Arial">Delivery</text>
  <text x="656" y="190" fill="#a78bfa" font-size="38" font-family="Inter,Segoe UI,Arial" font-weight="700">Fast</text>
  <text x="656" y="224" fill="#93c5fd" font-size="14" font-family="Inter,Segoe UI,Arial">One-command onboarding + daily reports</text>
  <text x="656" y="247" fill="#93c5fd" font-size="14" font-family="Inter,Segoe UI,Arial">Automation OS + trend exports</text>

  <rect x="56" y="304" width="848" height="172" rx="16" fill="#0d1530" stroke="#2c3f72"/>
  <rect x="78" y="334" width="380" height="20" rx="10" fill="#1e2b53"/>
  <rect x="78" y="334" width="280" height="20" rx="10" fill="#34d399"/>
  <text x="472" y="349" fill="#cbd5e1" font-size="15" font-family="Inter,Segoe UI,Arial">Doctor health score</text>
  <rect x="78" y="372" width="380" height="20" rx="10" fill="#1e2b53"/>
  <rect x="78" y="372" width="240" height="20" rx="10" fill="#22d3ee"/>
  <text x="472" y="387" fill="#cbd5e1" font-size="15" font-family="Inter,Segoe UI,Arial">Repo audit pass ratio</text>
  <rect x="78" y="410" width="380" height="20" rx="10" fill="#1e2b53"/>
  <rect x="78" y="410" width="336" height="20" rx="10" fill="#a78bfa"/>
  <text x="472" y="425" fill="#cbd5e1" font-size="15" font-family="Inter,Segoe UI,Arial">Automation replay determinism</text>

  <text x="656" y="352" fill="#dbeafe" font-size="18" font-family="Inter,Segoe UI,Arial" font-weight="700">Operator Flow</text>
  <text x="656" y="380" fill="#93c5fd" font-size="14" font-family="Inter,Segoe UI,Arial">1. sdetkit doctor --score</text>
  <text x="656" y="404" fill="#93c5fd" font-size="14" font-family="Inter,Segoe UI,Arial">2. sdetkit repo-audit --strict</text>
  <text x="656" y="428" fill="#93c5fd" font-size="14" font-family="Inter,Segoe UI,Arial">3. sdetkit report --format markdown</text>
</svg>
