<svg width="420" height="170" viewBox="0 0 420 170" fill="none" xmlns="http://www.w3.org/2000/svg" role="img" aria-label="Incremental and Cache">
  <defs>
    <linearGradient id="bg" x1="0" y1="0" x2="420" y2="170" gradientUnits="userSpaceOnUse">
      <stop stop-color="#0B1020"/>
      <stop offset="1" stop-color="#162447"/>
    </linearGradient>
    <linearGradient id="accent" x1="0" y1="0" x2="1" y2="1">
      <stop stop-color="#00D4FF"/>
      <stop offset="1" stop-color="#7B61FF"/>
    </linearGradient>
    <filter id="lift" x="-20%" y="-20%" width="140%" height="140%">
      <feOffset dy="6" result="off"/>
      <feGaussianBlur in="off" stdDeviation="10" result="blur"/>
      <feColorMatrix in="blur" type="matrix"
        values="0 0 0 0 0
                0 0 0 0 0
                0 0 0 0 0
                0 0 0 0.35 0" result="shadow"/>
      <feMerge>
        <feMergeNode in="shadow"/>
        <feMergeNode in="SourceGraphic"/>
      </feMerge>
    </filter>
  </defs>

  <rect width="420" height="170" rx="22" fill="url(#bg)"/>
  <g filter="url(#lift)">
    <rect x="16" y="16" width="388" height="138" rx="18" fill="#0D1734" stroke="#284B7A"/>
  </g>

  <path d="M72 86C72 66 88 50 108 50H142C162 50 178 66 178 86C178 106 162 122 142 122H108C88 122 72 106 72 86Z" stroke="url(#accent)" stroke-width="3"/>
  <path d="M116 62L116 110" stroke="#A7CBFF" stroke-width="2" opacity="0.8"/>
  <path d="M134 62L134 110" stroke="#A7CBFF" stroke-width="2" opacity="0.55"/>
  <path d="M94 86H156" stroke="#A7CBFF" stroke-width="2" opacity="0.55"/>

  <path d="M190 74C206 60 234 60 250 74" stroke="#A7CBFF" stroke-width="2" opacity="0.5" stroke-linecap="round"/>
  <path d="M250 74L242 70" stroke="#A7CBFF" stroke-width="2" opacity="0.5" stroke-linecap="round"/>
  <path d="M250 74L246 82" stroke="#A7CBFF" stroke-width="2" opacity="0.5" stroke-linecap="round"/>

  <text x="220" y="78" fill="url(#accent)" font-family="Inter,Segoe UI,Arial,sans-serif" font-size="24" font-weight="850">Incremental + Cache</text>
  <text x="220" y="106" fill="#D9E7FF" font-family="Inter,Segoe UI,Arial,sans-serif" font-size="15" font-weight="600">Skip unchanged, run faster</text>
  <text x="220" y="128" fill="#9CC9FF" font-family="Inter,Segoe UI,Arial,sans-serif" font-size="13" font-weight="600">Stable results</text>
</svg>
