<svg width="420" height="170" viewBox="0 0 420 170" fill="none" xmlns="http://www.w3.org/2000/svg" role="img" aria-label="Contribute">
  <defs>
    <linearGradient id="bg" x1="0" y1="0" x2="420" y2="170" gradientUnits="userSpaceOnUse">
      <stop stop-color="#0B1020"/>
      <stop offset="1" stop-color="#162447"/>
    </linearGradient>
    <linearGradient id="accent" x1="0" y1="0" x2="1" y2="1">
      <stop stop-color="#00D4FF"/>
      <stop offset="1" stop-color="#7B61FF"/>
    </linearGradient>
    <filter id="lift" x="-20%" y="-20%" width="140%" height="140%">
      <feOffset dy="6" result="off"/>
      <feGaussianBlur in="off" stdDeviation="10" result="blur"/>
      <feColorMatrix in="blur" type="matrix"
        values="0 0 0 0 0
                0 0 0 0 0
                0 0 0 0 0
                0 0 0 0.35 0" result="shadow"/>
      <feMerge>
        <feMergeNode in="shadow"/>
        <feMergeNode in="SourceGraphic"/>
      </feMerge>
    </filter>
  </defs>

  <rect width="420" height="170" rx="22" fill="url(#bg)"/>
  <g opacity="0.18" stroke="#9CC9FF">
    <path d="M18 44H402"/>
    <path d="M18 86H402"/>
    <path d="M18 128H402"/>
    <path d="M62 18V152"/>
    <path d="M150 18V152"/>
    <path d="M238 18V152"/>
    <path d="M326 18V152"/>
  </g>

  <g filter="url(#lift)">
    <rect x="16" y="16" width="388" height="138" rx="18" fill="#0D1734" stroke="#284B7A"/>
  </g>

  <circle cx="338" cy="60" r="34" fill="#1B3A6B" opacity="0.35"/>
  <circle cx="80" cy="126" r="40" fill="#0F2E56" opacity="0.38"/>

  <rect x="270" y="26" width="114" height="30" rx="15" fill="#08152E" stroke="#2D5EA3" opacity="0.95"/>
  <text x="327" y="47" text-anchor="middle" fill="#A7CBFF" font-family="Inter,Segoe UI,Arial,sans-serif" font-size="13" font-weight="800">Community</text>

  <path d="M78 118C88 104 100 96 112 96C124 96 136 104 146 118" stroke="url(#accent)" stroke-width="3" stroke-linecap="round"/>
  <circle cx="98" cy="84" r="12" stroke="#A7CBFF" stroke-width="2" opacity="0.9"/>
  <circle cx="126" cy="84" r="12" stroke="#A7CBFF" stroke-width="2" opacity="0.7"/>
  <path d="M106 92C110 96 114 96 118 92" stroke="#A7CBFF" stroke-width="2" opacity="0.7" stroke-linecap="round"/>

  <text x="170" y="78" fill="url(#accent)" font-family="Inter,Segoe UI,Arial,sans-serif" font-size="26" font-weight="850">Contribute</text>
  <text x="170" y="106" fill="#D9E7FF" font-family="Inter,Segoe UI,Arial,sans-serif" font-size="15" font-weight="600">PRs with strong gates</text>
  <text x="170" y="128" fill="#9CC9FF" font-family="Inter,Segoe UI,Arial,sans-serif" font-size="13" font-weight="600">Standards + templates</text>
</svg>
