<svg width="420" height="170" viewBox="0 0 420 170" fill="none" xmlns="http://www.w3.org/2000/svg" role="img" aria-label="Exporters">
  <defs>
    <linearGradient id="bg" x1="0" y1="0" x2="420" y2="170" gradientUnits="userSpaceOnUse">
      <stop stop-color="#0B1020"/>
      <stop offset="1" stop-color="#162447"/>
    </linearGradient>
    <linearGradient id="accent" x1="0" y1="0" x2="1" y2="1">
      <stop stop-color="#00D4FF"/>
      <stop offset="1" stop-color="#7B61FF"/>
    </linearGradient>
    <filter id="lift" x="-20%" y="-20%" width="140%" height="140%">
      <feOffset dy="6" result="off"/>
      <feGaussianBlur in="off" stdDeviation="10" result="blur"/>
      <feColorMatrix in="blur" type="matrix"
        values="0 0 0 0 0
                0 0 0 0 0
                0 0 0 0 0
                0 0 0 0.35 0" result="shadow"/>
      <feMerge>
        <feMergeNode in="shadow"/>
        <feMergeNode in="SourceGraphic"/>
      </feMerge>
    </filter>
  </defs>

  <rect width="420" height="170" rx="22" fill="url(#bg)"/>
  <g filter="url(#lift)">
    <rect x="16" y="16" width="388" height="138" rx="18" fill="#0D1734" stroke="#284B7A"/>
  </g>

  <path d="M74 60C74 55 78 51 83 51H143C148 51 152 55 152 60V124C152 129 148 133 143 133H83C78 133 74 129 74 124V60Z" stroke="url(#accent)" stroke-width="3"/>
  <path d="M90 70H136" stroke="#A7CBFF" stroke-width="2" opacity="0.85"/>
  <path d="M90 88H132" stroke="#A7CBFF" stroke-width="2" opacity="0.65"/>
  <path d="M90 106H128" stroke="#A7CBFF" stroke-width="2" opacity="0.5"/>

  <text x="220" y="78" fill="url(#accent)" font-family="Inter,Segoe UI,Arial,sans-serif" font-size="24" font-weight="850">Exporters</text>
  <text x="220" y="106" fill="#D9E7FF" font-family="Inter,Segoe UI,Arial,sans-serif" font-size="15" font-weight="600">JSON • SARIF • MD • HTML</text>
  <text x="220" y="128" fill="#9CC9FF" font-family="Inter,Segoe UI,Arial,sans-serif" font-size="13" font-weight="600">Deterministic reports</text>
</svg>
