<svg width="960" height="540" viewBox="0 0 960 540" xmlns="http://www.w3.org/2000/svg" role="img" aria-labelledby="title desc">
  <title id="title">DevS69 Repository Experience Map</title>
  <desc id="desc">A visual map linking core repository areas such as source, tests, docs, templates and tooling.</desc>
  <defs>
    <linearGradient id="bg" x1="0" y1="0" x2="1" y2="1">
      <stop offset="0%" stop-color="#081221"/>
      <stop offset="100%" stop-color="#0f2a3a"/>
    </linearGradient>
  </defs>
  <rect width="960" height="540" rx="28" fill="url(#bg)"/>
  <text x="48" y="68" fill="#e2e8f0" font-size="34" font-family="Inter,Segoe UI,Arial" font-weight="700">DevS69 Repo Intelligence Map</text>
  <text x="48" y="98" fill="#93c5fd" font-size="16" font-family="Inter,Segoe UI,Arial">How the repository is arranged for fast onboarding, reliable delivery, and visual discoverability.</text>

  <rect x="390" y="210" width="180" height="110" rx="16" fill="#1d4ed8"/>
  <text x="420" y="255" fill="#ffffff" font-size="24" font-family="Inter,Segoe UI,Arial" font-weight="700">README</text>
  <text x="408" y="281" fill="#dbeafe" font-size="13" font-family="Inter,Segoe UI,Arial">navigation hub</text>

  <rect x="70" y="120" width="230" height="110" rx="16" fill="#7c3aed"/>
  <text x="92" y="166" fill="#fff" font-size="24" font-family="Inter,Segoe UI,Arial" font-weight="700">src/sdkit</text>
  <text x="92" y="192" fill="#ede9fe" font-size="13" font-family="Inter,Segoe UI,Arial">CLI engine + workflows</text>

  <rect x="70" y="338" width="230" height="110" rx="16" fill="#0ea5e9"/>
  <text x="92" y="384" fill="#fff" font-size="24" font-family="Inter,Segoe UI,Arial" font-weight="700">tests/</text>
  <text x="92" y="410" fill="#e0f2fe" font-size="13" font-family="Inter,Segoe UI,Arial">quality gates + contracts</text>

  <rect x="660" y="120" width="230" height="110" rx="16" fill="#14b8a6"/>
  <text x="682" y="166" fill="#fff" font-size="24" font-family="Inter,Segoe UI,Arial" font-weight="700">docs/</text>
  <text x="682" y="192" fill="#ccfbf1" font-size="13" font-family="Inter,Segoe UI,Arial">portal + guides + reports</text>

  <rect x="660" y="338" width="230" height="110" rx="16" fill="#f97316"/>
  <text x="682" y="384" fill="#fff" font-size="24" font-family="Inter,Segoe UI,Arial" font-weight="700">templates/</text>
  <text x="682" y="410" fill="#ffedd5" font-size="13" font-family="Inter,Segoe UI,Arial">automation blueprints</text>

  <rect x="362" y="378" width="236" height="88" rx="14" fill="#334155"/>
  <text x="386" y="414" fill="#fff" font-size="21" font-family="Inter,Segoe UI,Arial" font-weight="700">tools/ + CI</text>
  <text x="386" y="438" fill="#e2e8f0" font-size="13" font-family="Inter,Segoe UI,Arial">ops scripts + release checks</text>

  <line x1="390" y1="252" x2="300" y2="175" stroke="#93c5fd" stroke-width="4"/>
  <line x1="390" y1="278" x2="300" y2="392" stroke="#93c5fd" stroke-width="4"/>
  <line x1="570" y1="252" x2="660" y2="175" stroke="#93c5fd" stroke-width="4"/>
  <line x1="570" y1="278" x2="660" y2="392" stroke="#93c5fd" stroke-width="4"/>
  <line x1="480" y1="320" x2="480" y2="378" stroke="#93c5fd" stroke-width="4"/>
</svg>
